<svg xmlns="http://www.w3.org/2000/svg" width="100" height="100" viewBox="0 0 100 100">
  <g id="Group_5246" data-name="Group 5246" transform="translate(-5754 -3594)">
    <rect id="Rectangle_3987" data-name="Rectangle 3987" width="100" height="100" rx="5" transform="translate(5754 3594)" fill="#04d361"/>
    <path id="Union_632" data-name="Union 632" d="M-1523-4338.444a2.1,2.1,0,0,1-2.222-2.221,2.1,2.1,0,0,1,2.222-2.223h17.777a2.1,2.1,0,0,1,2.222,2.223,2.226,2.226,0,0,1-2.222,2.221Zm-19.333-5.111a2.145,2.145,0,0,1,0-3.11l11.778-11.779-11.778-11.777a2.148,2.148,0,0,1,0-3.113,2.15,2.15,0,0,1,3.11,0l13.334,13.335a2.015,2.015,0,0,1,.666,1.555,2.014,2.014,0,0,1-.666,1.554l-13.334,13.335a2.4,2.4,0,0,1-1.556.668A2.017,2.017,0,0,1-1542.333-4343.556Z" transform="translate(7327 8000.001)" fill="#fff"/>
  </g>
</svg>
