<svg xmlns="http://www.w3.org/2000/svg" width="100" height="100" viewBox="0 0 100 100">
  <g id="Group_3397" data-name="Group 3397" transform="translate(-612 -8555)">
    <g id="Group_5254" data-name="Group 5254" transform="translate(-4158 1539)">
      <rect id="Rectangle_3991" data-name="Rectangle 3991" width="100" height="100" rx="5" transform="translate(4770 7016)" fill="#7159c1"/>
    </g>
    <g id="Group_3293" data-name="Group 3293" transform="translate(487.022 8646.592)">
      <g id="Group_1188" data-name="Group 1188" transform="translate(166.978 -99.87)">
        <g id="Group_1182" data-name="Group 1182" transform="translate(0 6.089)">
          <g id="Group_1173" data-name="Group 1173">
            <g id="Group_1171" data-name="Group 1171" transform="translate(0 3.676)">
              <path id="Path_430" data-name="Path 430" d="M256.305,128.7a6.67,6.67,0,0,1-2.814,5.123,5.734,5.734,0,0,1-.6.38,6.532,6.532,0,0,1-2.707.826,8.353,8.353,0,0,1-.883.015,6.932,6.932,0,0,1-.71-.078,6.65,6.65,0,0,1-3.612-1.838,5.752,5.752,0,0,1-.482-.532,6.617,6.617,0,0,1-1.494-4,.219.219,0,0,1,.22-.22.21.21,0,0,1,.121.04l.011.007.05.049,1.618,1.622a4.618,4.618,0,0,0,.9.706,4.424,4.424,0,0,0,.645.327,4.743,4.743,0,0,0,2.733.273,4.991,4.991,0,0,0,.7-.192,4.05,4.05,0,0,0,.383-.159,4.21,4.21,0,0,0,.628-.348,4.845,4.845,0,0,0,.742-.606h0a4.768,4.768,0,0,0,0-6.738l-1.6-1.6a.751.751,0,0,1-.22-.532v-7.064a2.286,2.286,0,0,1,.031-.384,2.32,2.32,0,0,1,3.942-1.331,2.339,2.339,0,0,1,.657,1.331,2.389,2.389,0,0,1,.021.316v8.782a3.015,3.015,0,0,0,.543,1.732A6.629,6.629,0,0,1,256.305,128.7Z" transform="translate(-243 -111.756)" fill="#323238"/>
            </g>
            <path id="Path_431" data-name="Path 431" d="M255.253,117.915h-5.322a.831.831,0,0,1-.749-.472l-3.066-7.493h12.952L256,117.443A.831.831,0,0,1,255.253,117.915Z" transform="translate(-243.162 -107.761)" fill="#fff"/>
          </g>
          <g id="Group_1181" data-name="Group 1181" transform="translate(7.398 22.691)">
            <g id="Group_1180" data-name="Group 1180" transform="translate(0 0)">
              <path id="Path_443" data-name="Path 443" d="M249.186,147.421c-.276,0-.5-.123-.5-.275V132.7c0-.151.224-.275.5-.275s.5.123.5.275v14.451C249.686,147.3,249.462,147.421,249.186,147.421Z" transform="translate(-248.686 -132.421)" fill="#e6e6e6"/>
            </g>
          </g>
        </g>
      </g>
      <path id="React_Native" data-name="React Native" d="M30.783,48.145C26.369,52.378,22.013,54.919,18.5,54.8a6.064,6.064,0,0,1-3.145-.788c-3.085-1.754-4.233-6.351-3.2-12.825q.287-1.77.726-3.511A27.811,27.811,0,0,1,9.5,36.585C3.386,34.293,0,31.027,0,27.4c0-3.567,3.386-6.834,9.5-9.192,1.088-.358,2.177-.726,3.386-1.088-.3-1.212-.546-2.359-.726-3.511C11.066,7.135,12.216,2.6,15.36.782A6.078,6.078,0,0,1,18.505,0c3.506,0,7.86,2.54,12.216,6.834C35.135,2.539,39.548,0,43,0A6.09,6.09,0,0,1,46.14.787c3.147,1.816,4.294,6.412,3.266,13-.181,1.146-.423,2.3-.726,3.511a27.912,27.912,0,0,1,3.386,1.09c6.111,2.292,9.5,5.558,9.5,9.191,0,3.568-3.386,6.834-9.5,9.192-1.088.358-2.177.726-3.386,1.088.3,1.211.546,2.359.726,3.511,1.089,6.472-.061,11.008-3.2,12.825a6.079,6.079,0,0,1-3.145.788C39.548,54.978,35.2,52.437,30.783,48.145Zm7.076-8.407a63.25,63.25,0,0,1-5.141,6.352c3.629,3.628,7.319,6.048,10.28,6.048a3.271,3.271,0,0,0,1.755-.423h0c2.056-1.151,2.723-4.84,1.874-9.981a30.966,30.966,0,0,0-.666-3.266,55.575,55.575,0,0,1-8.1,1.269Zm-22.927,2h0c-.847,5.141-.183,8.83,1.874,9.981a3.418,3.418,0,0,0,1.755.423c2.963,0,6.652-2.481,10.28-6.048a55.869,55.869,0,0,1-5.14-6.352,77.71,77.71,0,0,1-8.107-1.27c-.236,1.15-.477,2.236-.66,3.263Zm15.845,2.3q1.785-1.947,3.386-4.052c-1.088.061-2.239.061-3.386.061s-2.3,0-3.386-.061q1.6,2.1,3.39,4.05Zm-5.5-26.187c-1.028,1.576-2.056,3.144-2.963,4.717-.969,1.632-1.816,3.267-2.6,4.9q1.194,2.508,2.6,4.9,1.383,2.419,2.963,4.718a83.055,83.055,0,0,0,11.01,0c1.028-1.576,2.056-3.145,2.963-4.718q1.408-2.391,2.6-4.9c-.788-1.631-1.631-3.266-2.6-4.9-.908-1.576-1.874-3.144-2.963-4.717q-2.749-.183-5.505-.183t-5.5.182ZM16.389,35.806q2.64.562,5.321.906c-.666-.966-1.212-1.934-1.816-2.962h0c-.6-.966-1.146-2-1.631-2.963C17.538,32.478,16.933,34.174,16.389,35.806Zm26.975-5.078c-.543,1.028-1.087,2.055-1.631,2.963-.607,1.027-1.212,1.995-1.816,2.963,1.874-.242,3.629-.546,5.321-.908-.542-1.634-1.146-3.328-1.874-5.021Zm1.576-3.268A63.638,63.638,0,0,1,47.9,35.081c1.088-.3,2.175-.666,3.144-1.028,4.9-1.876,7.68-4.235,7.68-6.591,0-2.723-4.051-5.685-10.824-7.62a54.751,54.751,0,0,1-2.963,7.617ZM10.519,20.867c-4.9,1.874-7.68,4.233-7.68,6.591,0,2.723,4.051,5.685,10.825,7.622a57.819,57.819,0,0,1,2.963-7.619,63.588,63.588,0,0,1-2.963-7.622c-1.089.3-2.175.665-3.145,1.027Zm7.738,3.384c.482-1.027,1.025-2,1.633-3.025s1.21-1.993,1.815-2.963c-1.874.242-3.627.546-5.321.908a40.259,40.259,0,0,0,1.876,5.08Zm23.472-3.081,1.631,3.024h0c.724-1.7,1.332-3.388,1.874-5.081-1.693-.362-3.448-.666-5.321-.908.668.966,1.212,1.935,1.818,2.963ZM32.773,8.832a55.869,55.869,0,0,1,5.141,6.351,77.9,77.9,0,0,1,8.106,1.27c.242-1.146.485-2.239.666-3.266.847-5.2.123-8.831-1.874-9.98a3.418,3.418,0,0,0-1.752-.426h0c-2.965,0-6.654,2.478-10.283,6.048Zm-17.84,4.35a30.749,30.749,0,0,0,.666,3.266A55.558,55.558,0,0,1,23.7,15.181,62.912,62.912,0,0,1,28.845,8.83C25.219,5.2,21.527,2.781,18.563,2.781a3.277,3.277,0,0,0-1.755.424h0C14.752,4.415,14.086,8.044,14.933,13.182Zm19.236,1.754c-1.089-1.389-2.237-2.782-3.386-4.052-1.146,1.27-2.3,2.6-3.387,4.052,1.089-.061,2.24-.061,3.387-.061s2.3,0,3.386.064ZM25.157,27.459a5.625,5.625,0,1,1,5.625,5.625,5.625,5.625,0,0,1-5.625-5.625Z" transform="translate(143.978 -63.253)" fill="#e6e6e6"/>
    </g>
  </g>
</svg>
