<svg xmlns="http://www.w3.org/2000/svg" width="100" height="100" viewBox="0 0 100 100">
  <g id="Group_5245" data-name="Group 5245" transform="translate(-49.841 -29)">
    <rect id="Rectangle_3988" data-name="Rectangle 3988" width="100" height="100" rx="5" transform="translate(49.841 29)" fill="#8cc84b"/>
    <g id="nodejs-icon" transform="translate(70.841 47)">
      <path id="Path_61" data-name="Path 61" d="M27.423,1.278a5.448,5.448,0,0,1,5.319,0Q44.888,8.141,57.036,15a5,5,0,0,1,2.526,4.307V46.837a5.056,5.056,0,0,1-2.715,4.4Q44.741,58.064,32.64,64.9a5.294,5.294,0,0,1-5.378-.149q-3.63-2.1-7.264-4.2a4.277,4.277,0,0,1-1.4-1.009c.309-.416.861-.468,1.309-.65a16.954,16.954,0,0,0,2.866-1.337.669.669,0,0,1,.746.045c2.069,1.186,4.12,2.407,6.2,3.582.443.256.891-.084,1.27-.295q11.881-6.715,23.769-13.414a.786.786,0,0,0,.432-.774q.008-13.622,0-27.246a.851.851,0,0,0-.507-.849Q42.616,11.805,30.557,5a.838.838,0,0,0-.947,0Q17.546,11.8,5.488,18.6a.841.841,0,0,0-.51.845q0,13.622,0,27.247a.77.77,0,0,0,.437.764q3.219,1.825,6.442,3.638a4.978,4.978,0,0,0,4.028.539,3.056,3.056,0,0,0,1.978-2.871c.011-9.028-.006-18.058.008-27.085a.68.68,0,0,1,.74-.694c1.031-.007,2.064-.014,3.095,0a.714.714,0,0,1,.673.826c0,9.085.011,18.171-.007,27.257,0,2.421-.992,5.056-3.232,6.241a9.953,9.953,0,0,1-8.9-.244c-2.36-1.178-4.612-2.568-6.93-3.83A5.044,5.044,0,0,1,.6,46.837V19.308a5.01,5.01,0,0,1,2.613-4.362Q15.321,8.115,27.423,1.278Z" transform="translate(-0.603 -0.584)" fill="#fff"/>
      <path id="Path_62" data-name="Path 62" d="M114.532,85.692c3.52-.227,7.287-.134,10.455,1.6a7.906,7.906,0,0,1,3.855,6.842.74.74,0,0,1-.8.545c-1.021,0-2.043.014-3.064-.007a.79.79,0,0,1-.739-.766A4.664,4.664,0,0,0,122,90.682c-1.883-.943-4.067-.9-6.121-.876A8.309,8.309,0,0,0,111.5,90.9a2.776,2.776,0,0,0-.923,3.1c.328.78,1.228,1.031,1.964,1.263,4.242,1.109,8.736,1,12.9,2.459a6.072,6.072,0,0,1,4,3.556,7.6,7.6,0,0,1-1.287,7.247,10.155,10.155,0,0,1-5.452,2.938,26.192,26.192,0,0,1-8.229.349,12.968,12.968,0,0,1-7.239-2.723,7.6,7.6,0,0,1-2.446-5.992.686.686,0,0,1,.752-.605c1.028-.008,2.057-.011,3.085,0a.721.721,0,0,1,.736.713,4.674,4.674,0,0,0,1.739,3.282c2.09,1.348,4.713,1.256,7.106,1.294,1.983-.088,4.208-.115,5.826-1.425a3.218,3.218,0,0,0,.876-3.074c-.25-.908-1.2-1.331-2.016-1.608-4.187-1.325-8.732-.844-12.879-2.342a6.268,6.268,0,0,1-3.958-3.449,7.065,7.065,0,0,1,1.411-7.35c1.853-1.865,4.527-2.583,7.07-2.84Z" transform="translate(-80.673 -65.929)" fill="#fff"/>
    </g>
  </g>
</svg>
