<svg xmlns="http://www.w3.org/2000/svg" width="100" height="100" viewBox="0 0 100 100">
  <g id="Group_3397" data-name="Group 3397" transform="translate(-612 -8555)">
    <g id="Group_5253" data-name="Group 5253" transform="translate(-4158 1539)">
      <rect id="Rectangle_3991" data-name="Rectangle 3991" width="100" height="100" rx="5" transform="translate(4770 7016)" fill="#7159c1"/>
    </g>
    <path id="redux" d="M40.938,39.173a4.223,4.223,0,0,0-.451-8.421h-.15a4.206,4.206,0,0,0-4.06,4.361,4.318,4.318,0,0,0,1.2,2.782c-2.556,5.038-6.466,8.722-12.33,11.8A20.332,20.332,0,0,1,12.894,52.03a10.452,10.452,0,0,1-7.669-4.436,11.044,11.044,0,0,1-.6-11.654,17.7,17.7,0,0,1,5.112-6.015c-.3-.977-.752-2.631-.977-3.834C-2.143,33.985-1.015,44.662,2.293,49.7c2.481,3.76,7.518,6.09,13.082,6.09a18.493,18.493,0,0,0,4.511-.526,28.853,28.853,0,0,0,21.052-16.09ZM54.171,29.85c-5.714-6.692-14.135-10.376-23.759-10.376h-1.2a4.132,4.132,0,0,0-3.684-2.256h-.15a4.212,4.212,0,0,0,.15,8.421h.15a4.235,4.235,0,0,0,3.684-2.556h1.353A28.656,28.656,0,0,1,46.727,27.97,20.141,20.141,0,0,1,54.7,37.594a10.422,10.422,0,0,1-.15,8.872,11.037,11.037,0,0,1-10.3,6.165,19.23,19.23,0,0,1-7.368-1.579c-.827.752-2.331,1.955-3.383,2.707a23.212,23.212,0,0,0,9.7,2.331c7.218,0,12.556-3.985,14.586-7.97,2.18-4.361,2.03-11.88-3.609-18.271Zm-38.194,10.6a4.223,4.223,0,0,0,4.21,4.06h.15a4.212,4.212,0,0,0-.15-8.421h-.15a1.281,1.281,0,0,0-.526.075A27.548,27.548,0,0,1,15.6,19.473,20.169,20.169,0,0,1,20.037,7.819c2.18-2.782,6.391-4.135,9.248-4.21,7.969-.15,11.353,9.774,11.578,13.759.977.225,2.631.752,3.759,1.128C43.72,6.316,36.2,0,28.984,0,22.217,0,15.977,4.887,13.5,12.105c-3.458,9.624-1.2,18.872,3.007,26.165a3.378,3.378,0,0,0-.526,2.181Z" transform="translate(632.458 8577.472)" fill="#e6e6e6"/>
  </g>
</svg>
